<mxfile host="app.diagrams.net" modified="2022-07-26T15:55:02.148Z" agent="5.0 (Windows NT 10.0; Win64; x64) AppleWebKit/537.36 (KHTML, like Gecko) Chrome/103.0.0.0 Safari/537.36" etag="OUAX6weqouX0VqLgwbxN" version="20.1.3" type="github">
  <diagram id="3sFBM591d9IuOq0TxFFd" name="Pagina-1">
    <mxGraphModel dx="1422" dy="705" grid="1" gridSize="10" guides="1" tooltips="1" connect="1" arrows="1" fold="1" page="1" pageScale="1" pageWidth="1169" pageHeight="827" math="0" shadow="0">
      <root>
        <mxCell id="0" />
        <mxCell id="1" parent="0" />
        <mxCell id="8ROUqmXq9B6ssqR97ppE-1" value="&lt;font style=&quot;font-size: 14px;&quot;&gt;&lt;b&gt;Machine Learning&lt;/b&gt;&lt;/font&gt;" style="rounded=1;whiteSpace=wrap;html=1;" parent="1" vertex="1">
          <mxGeometry x="505" y="50" width="160" height="60" as="geometry" />
        </mxCell>
        <mxCell id="8ROUqmXq9B6ssqR97ppE-10" value="" style="rounded=0;orthogonalLoop=1;jettySize=auto;html=1;fontSize=14;exitX=0.25;exitY=1;exitDx=0;exitDy=0;" parent="1" source="8ROUqmXq9B6ssqR97ppE-2" target="8ROUqmXq9B6ssqR97ppE-9" edge="1">
          <mxGeometry relative="1" as="geometry">
            <mxPoint x="210" y="427.3333333333335" as="sourcePoint" />
          </mxGeometry>
        </mxCell>
        <mxCell id="8ROUqmXq9B6ssqR97ppE-2" value="&lt;div style=&quot;text-align: center;&quot;&gt;&lt;b style=&quot;background-color: initial;&quot;&gt;Supervised Learning&lt;/b&gt;&lt;/div&gt;&lt;ul&gt;&lt;li&gt;Find Criteria to separate data by class&amp;nbsp;&lt;/li&gt;&lt;li&gt;Feature-based value estimation&lt;/li&gt;&lt;/ul&gt;" style="rounded=1;whiteSpace=wrap;html=1;fontSize=14;align=left;" parent="1" vertex="1">
          <mxGeometry x="150" y="140" width="220" height="150" as="geometry" />
        </mxCell>
        <mxCell id="8ROUqmXq9B6ssqR97ppE-3" value="&lt;b&gt;Unsupervised Learning&lt;/b&gt;&lt;br&gt;&lt;ul&gt;&lt;li style=&quot;text-align: left;&quot;&gt;Group similar objects in a cluster&lt;/li&gt;&lt;/ul&gt;" style="rounded=1;whiteSpace=wrap;html=1;fontSize=14;" parent="1" vertex="1">
          <mxGeometry x="475" y="140" width="220" height="100" as="geometry" />
        </mxCell>
        <mxCell id="8ROUqmXq9B6ssqR97ppE-4" value="&lt;b&gt;&lt;br&gt;Reinforcement Learning&lt;/b&gt;&lt;br&gt;&lt;div&gt;&lt;ul&gt;&lt;li style=&quot;text-align: left;&quot;&gt;A computer program interacts with a dynamic environment in which it must perform a particular task.&lt;/li&gt;&lt;li style=&quot;text-align: left;&quot;&gt;In contrast to classical machine learning, RL does not provide the algorithm with a learning sample as input.&amp;nbsp;&lt;/li&gt;&lt;/ul&gt;&lt;/div&gt;&lt;div&gt;&lt;br&gt;&lt;/div&gt;" style="rounded=1;whiteSpace=wrap;html=1;fontSize=14;" parent="1" vertex="1">
          <mxGeometry x="777.5" y="140" width="305" height="180" as="geometry" />
        </mxCell>
        <mxCell id="8ROUqmXq9B6ssqR97ppE-5" value="" style="endArrow=classic;html=1;rounded=0;fontSize=14;exitX=0.25;exitY=1;exitDx=0;exitDy=0;entryX=0.5;entryY=0;entryDx=0;entryDy=0;" parent="1" source="8ROUqmXq9B6ssqR97ppE-1" target="8ROUqmXq9B6ssqR97ppE-2" edge="1">
          <mxGeometry width="50" height="50" relative="1" as="geometry">
            <mxPoint x="390" y="370" as="sourcePoint" />
            <mxPoint x="440" y="320" as="targetPoint" />
          </mxGeometry>
        </mxCell>
        <mxCell id="8ROUqmXq9B6ssqR97ppE-6" value="" style="endArrow=classic;html=1;rounded=0;fontSize=14;exitX=0.5;exitY=1;exitDx=0;exitDy=0;entryX=0.5;entryY=0;entryDx=0;entryDy=0;" parent="1" source="8ROUqmXq9B6ssqR97ppE-1" target="8ROUqmXq9B6ssqR97ppE-3" edge="1">
          <mxGeometry width="50" height="50" relative="1" as="geometry">
            <mxPoint x="380" y="130" as="sourcePoint" />
            <mxPoint x="190" y="190" as="targetPoint" />
          </mxGeometry>
        </mxCell>
        <mxCell id="8ROUqmXq9B6ssqR97ppE-7" value="" style="endArrow=classic;html=1;rounded=0;fontSize=14;exitX=0.75;exitY=1;exitDx=0;exitDy=0;entryX=0.5;entryY=0;entryDx=0;entryDy=0;" parent="1" source="8ROUqmXq9B6ssqR97ppE-1" target="8ROUqmXq9B6ssqR97ppE-4" edge="1">
          <mxGeometry width="50" height="50" relative="1" as="geometry">
            <mxPoint x="430" y="130" as="sourcePoint" />
            <mxPoint x="240" y="190" as="targetPoint" />
          </mxGeometry>
        </mxCell>
        <mxCell id="8ROUqmXq9B6ssqR97ppE-19" value="" style="edgeStyle=orthogonalEdgeStyle;rounded=0;orthogonalLoop=1;jettySize=auto;html=1;fontSize=14;entryX=0.5;entryY=0;entryDx=0;entryDy=0;exitX=0;exitY=0.5;exitDx=0;exitDy=0;" parent="1" source="8ROUqmXq9B6ssqR97ppE-9" target="8ROUqmXq9B6ssqR97ppE-18" edge="1">
          <mxGeometry relative="1" as="geometry">
            <mxPoint x="100" y="440" as="targetPoint" />
            <Array as="points">
              <mxPoint x="40" y="356" />
              <mxPoint x="40" y="530" />
              <mxPoint x="165" y="530" />
            </Array>
          </mxGeometry>
        </mxCell>
        <mxCell id="8ROUqmXq9B6ssqR97ppE-9" value="Classification" style="rounded=1;whiteSpace=wrap;html=1;fontSize=14;" parent="1" vertex="1">
          <mxGeometry x="100" y="326" width="140" height="60" as="geometry" />
        </mxCell>
        <mxCell id="8ROUqmXq9B6ssqR97ppE-21" value="" style="edgeStyle=none;rounded=0;orthogonalLoop=1;jettySize=auto;html=1;fontSize=14;" parent="1" source="8ROUqmXq9B6ssqR97ppE-11" target="8ROUqmXq9B6ssqR97ppE-20" edge="1">
          <mxGeometry relative="1" as="geometry" />
        </mxCell>
        <mxCell id="8ROUqmXq9B6ssqR97ppE-11" value="Regression" style="whiteSpace=wrap;html=1;fontSize=14;rounded=1;" parent="1" vertex="1">
          <mxGeometry x="300" y="320" width="120" height="60" as="geometry" />
        </mxCell>
        <mxCell id="8ROUqmXq9B6ssqR97ppE-13" value="" style="endArrow=classic;html=1;rounded=0;fontSize=14;exitX=0.75;exitY=1;exitDx=0;exitDy=0;entryX=0.5;entryY=0;entryDx=0;entryDy=0;" parent="1" source="8ROUqmXq9B6ssqR97ppE-2" target="8ROUqmXq9B6ssqR97ppE-11" edge="1">
          <mxGeometry width="50" height="50" relative="1" as="geometry">
            <mxPoint x="375" y="440" as="sourcePoint" />
            <mxPoint x="720" y="520" as="targetPoint" />
          </mxGeometry>
        </mxCell>
        <mxCell id="8ROUqmXq9B6ssqR97ppE-14" value="" style="rounded=0;orthogonalLoop=1;jettySize=auto;html=1;fontSize=14;exitX=0.5;exitY=1;exitDx=0;exitDy=0;entryX=0.5;entryY=0;entryDx=0;entryDy=0;" parent="1" source="8ROUqmXq9B6ssqR97ppE-4" target="8ROUqmXq9B6ssqR97ppE-15" edge="1">
          <mxGeometry relative="1" as="geometry">
            <mxPoint x="860" y="256" as="sourcePoint" />
          </mxGeometry>
        </mxCell>
        <mxCell id="8ROUqmXq9B6ssqR97ppE-15" value="Clustering" style="rounded=1;whiteSpace=wrap;html=1;fontSize=14;" parent="1" vertex="1">
          <mxGeometry x="760" y="380" width="120" height="60" as="geometry" />
        </mxCell>
        <mxCell id="8ROUqmXq9B6ssqR97ppE-16" value="Dimensionality Reduction" style="whiteSpace=wrap;html=1;fontSize=14;rounded=1;" parent="1" vertex="1">
          <mxGeometry x="935" y="386" width="120" height="60" as="geometry" />
        </mxCell>
        <mxCell id="8ROUqmXq9B6ssqR97ppE-17" value="" style="endArrow=classic;html=1;rounded=0;fontSize=14;exitX=0.5;exitY=1;exitDx=0;exitDy=0;entryX=0.5;entryY=0;entryDx=0;entryDy=0;" parent="1" source="8ROUqmXq9B6ssqR97ppE-4" target="8ROUqmXq9B6ssqR97ppE-16" edge="1">
          <mxGeometry width="50" height="50" relative="1" as="geometry">
            <mxPoint x="920" y="286" as="sourcePoint" />
            <mxPoint x="1345" y="426" as="targetPoint" />
          </mxGeometry>
        </mxCell>
        <mxCell id="8ROUqmXq9B6ssqR97ppE-18" value="&lt;div style=&quot;text-align: center;&quot;&gt;&lt;b&gt;Applications:&lt;/b&gt;&lt;/div&gt;&lt;ul&gt;&lt;li&gt;&lt;span style=&quot;background-color: initial;&quot;&gt;Image Classification&lt;/span&gt;&lt;/li&gt;&lt;li&gt;&lt;span style=&quot;background-color: initial;&quot;&gt;Identity Fraud Detection&lt;/span&gt;&lt;/li&gt;&lt;li&gt;&lt;span style=&quot;background-color: initial;&quot;&gt;Diagnosis&lt;/span&gt;&lt;/li&gt;&lt;li&gt;&lt;span style=&quot;background-color: initial;&quot;&gt;Customer Retention&lt;/span&gt;&lt;/li&gt;&lt;/ul&gt;" style="rounded=1;whiteSpace=wrap;html=1;fontSize=14;align=left;" parent="1" vertex="1">
          <mxGeometry x="80" y="560" width="170" height="150" as="geometry" />
        </mxCell>
        <mxCell id="8ROUqmXq9B6ssqR97ppE-20" value="&lt;div style=&quot;text-align: center;&quot;&gt;&lt;b style=&quot;&quot;&gt;&lt;br&gt;&lt;/b&gt;&lt;/div&gt;&lt;div style=&quot;text-align: center;&quot;&gt;&lt;b style=&quot;&quot;&gt;&lt;br&gt;&lt;/b&gt;&lt;/div&gt;&lt;div style=&quot;text-align: center;&quot;&gt;&lt;b style=&quot;&quot;&gt;Applications:&lt;/b&gt;&lt;br&gt;&lt;/div&gt;&lt;ul&gt;&lt;li&gt;Advertising Popularity Prediction&lt;/li&gt;&lt;li&gt;Weather Forecasting&lt;/li&gt;&lt;li&gt;Market Forecasting&lt;/li&gt;&lt;li&gt;Estimating Life Expectancy&lt;/li&gt;&lt;li&gt;Population Growth Prediction&lt;/li&gt;&lt;/ul&gt;" style="whiteSpace=wrap;html=1;fontSize=14;rounded=1;align=left;" parent="1" vertex="1">
          <mxGeometry x="275" y="560" width="190" height="200" as="geometry" />
        </mxCell>
        <mxCell id="8ROUqmXq9B6ssqR97ppE-22" value="" style="edgeStyle=none;rounded=0;orthogonalLoop=1;jettySize=auto;html=1;fontSize=14;entryX=0.5;entryY=0;entryDx=0;entryDy=0;exitX=0.5;exitY=1;exitDx=0;exitDy=0;" parent="1" target="8ROUqmXq9B6ssqR97ppE-24" edge="1" source="8ROUqmXq9B6ssqR97ppE-15">
          <mxGeometry relative="1" as="geometry">
            <mxPoint x="786.1363636363637" y="386" as="sourcePoint" />
          </mxGeometry>
        </mxCell>
        <mxCell id="8ROUqmXq9B6ssqR97ppE-23" value="" style="edgeStyle=none;rounded=0;orthogonalLoop=1;jettySize=auto;html=1;fontSize=14;" parent="1" target="8ROUqmXq9B6ssqR97ppE-25" edge="1">
          <mxGeometry relative="1" as="geometry">
            <mxPoint x="1000" y="450" as="sourcePoint" />
            <Array as="points">
              <mxPoint x="1000" y="450" />
            </Array>
          </mxGeometry>
        </mxCell>
        <mxCell id="8ROUqmXq9B6ssqR97ppE-24" value="&lt;ul&gt;&lt;li&gt;Big Data Visualization&lt;/li&gt;&lt;li&gt;Meaningful Comprension&lt;/li&gt;&lt;li&gt;Structure Discovery&lt;/li&gt;&lt;li&gt;Feature Elicitation&lt;/li&gt;&lt;/ul&gt;" style="rounded=1;whiteSpace=wrap;html=1;fontSize=14;align=left;" parent="1" vertex="1">
          <mxGeometry x="710" y="520" width="170" height="150" as="geometry" />
        </mxCell>
        <mxCell id="8ROUqmXq9B6ssqR97ppE-25" value="&lt;ul&gt;&lt;li&gt;Recommender Systems&lt;/li&gt;&lt;li&gt;Targetted Marketing&lt;/li&gt;&lt;li&gt;Customer Segmentation&lt;/li&gt;&lt;/ul&gt;" style="whiteSpace=wrap;html=1;fontSize=14;rounded=1;align=left;" parent="1" vertex="1">
          <mxGeometry x="900" y="520" width="190" height="170" as="geometry" />
        </mxCell>
        <mxCell id="8ROUqmXq9B6ssqR97ppE-27" style="edgeStyle=none;rounded=0;orthogonalLoop=1;jettySize=auto;html=1;exitX=0.25;exitY=0;exitDx=0;exitDy=0;fontSize=14;" parent="1" source="8ROUqmXq9B6ssqR97ppE-3" target="8ROUqmXq9B6ssqR97ppE-3" edge="1">
          <mxGeometry relative="1" as="geometry" />
        </mxCell>
        <mxCell id="8ROUqmXq9B6ssqR97ppE-30" value="&lt;span style=&quot;background-color: initial;&quot;&gt;Anomaly detection&lt;br&gt;&lt;/span&gt;" style="rounded=1;whiteSpace=wrap;html=1;fontSize=14;" parent="1" vertex="1">
          <mxGeometry x="570" y="380" width="160" height="60" as="geometry" />
        </mxCell>
        <mxCell id="wXu2tFn901hQD9uIY95R-117" value="" style="edgeStyle=orthogonalEdgeStyle;startArrow=none;endArrow=none;rounded=0;targetPortConstraint=eastwest;sourcePortConstraint=northsouth;fontSize=14;" edge="1" target="wXu2tFn901hQD9uIY95R-119" parent="1">
          <mxGeometry relative="1" as="geometry">
            <mxPoint x="180" y="386" as="sourcePoint" />
          </mxGeometry>
        </mxCell>
        <mxCell id="wXu2tFn901hQD9uIY95R-118" value="" style="edgeStyle=orthogonalEdgeStyle;startArrow=none;endArrow=none;rounded=0;targetPortConstraint=eastwest;sourcePortConstraint=northsouth;fontSize=14;" edge="1" target="wXu2tFn901hQD9uIY95R-120" parent="1">
          <mxGeometry relative="1" as="geometry">
            <mxPoint x="180" y="386" as="sourcePoint" />
          </mxGeometry>
        </mxCell>
        <mxCell id="wXu2tFn901hQD9uIY95R-119" value="Binary Classification&lt;br&gt;" style="whiteSpace=wrap;html=1;align=center;verticalAlign=middle;treeFolding=1;treeMoving=1;fontSize=14;" vertex="1" parent="1">
          <mxGeometry x="70" y="410" width="100" height="70" as="geometry" />
        </mxCell>
        <mxCell id="wXu2tFn901hQD9uIY95R-120" value="Multiclass Classification" style="whiteSpace=wrap;html=1;align=center;verticalAlign=middle;treeFolding=1;treeMoving=1;fontSize=14;" vertex="1" parent="1">
          <mxGeometry x="190" y="410" width="100" height="70" as="geometry" />
        </mxCell>
        <mxCell id="wXu2tFn901hQD9uIY95R-123" value="" style="endArrow=classic;html=1;rounded=0;fontSize=14;exitX=0.25;exitY=1;exitDx=0;exitDy=0;entryX=0.5;entryY=0;entryDx=0;entryDy=0;" edge="1" parent="1" source="8ROUqmXq9B6ssqR97ppE-4" target="8ROUqmXq9B6ssqR97ppE-30">
          <mxGeometry width="50" height="50" relative="1" as="geometry">
            <mxPoint x="790" y="326" as="sourcePoint" />
            <mxPoint x="620" y="436" as="targetPoint" />
          </mxGeometry>
        </mxCell>
      </root>
    </mxGraphModel>
  </diagram>
</mxfile>
